<svg fill="white" xmlns="http://www.w3.org/2000/svg" xmlns:xlink="http://www.w3.org/1999/xlink" version="1.1" x="0px" y="0px" viewBox="0 0 427.106 630" style="enable-background:new 0 0 427.106 504;" xml:space="preserve"><path d="M287.763,156.816c0-72.204-58.742-130.947-130.946-130.947S25.869,84.612,25.869,156.816s58.743,130.946,130.947,130.946  S287.763,229.021,287.763,156.816z M33.869,156.816c0-67.793,55.154-122.947,122.947-122.947s122.946,55.154,122.946,122.947  s-55.153,122.946-122.946,122.946S33.869,224.609,33.869,156.816z M309.985,267.247c-0.75-0.75-1.768-1.172-2.828-1.172  s-2.078,0.422-2.828,1.172l-3.393,3.393l-19.176-19.176c19.989-26.323,31.871-59.121,31.871-94.648  C313.632,70.348,243.285,0,156.816,0S0,70.348,0,156.816C0,234.86,57.309,299.761,132.052,311.67v12.345  c-33.12,11.01-104.809,49.233-121.116,175.473c-0.147,1.141,0.203,2.29,0.963,3.153c0.759,0.864,1.854,1.359,3.004,1.359h283.827  c1.15,0,2.245-0.495,3.004-1.359c0.76-0.863,1.11-2.013,0.963-3.153c-16.308-126.239-87.995-164.462-121.115-175.473V311.67  c25.955-4.135,49.804-14.661,69.884-29.909l19.175,19.176l-3.392,3.392c-1.563,1.562-1.563,4.095,0,5.656L375.532,418.27  c5.892,5.893,13.629,8.837,21.368,8.837c7.738,0,15.479-2.946,21.369-8.837c11.782-11.783,11.782-30.955,0-42.737L309.985,267.247z   M8,156.816C8,74.759,74.759,8,156.816,8c82.057,0,148.815,66.759,148.815,148.816c0,82.057-66.759,148.815-148.815,148.815  C74.759,305.632,8,238.873,8,156.816z M169.373,362.148c0,6.924-5.633,12.557-12.557,12.557s-12.557-5.633-12.557-12.557v-6.463  c0-3.36,2.733-6.094,6.094-6.094h12.925c3.36,0,6.095,2.733,6.095,6.094V362.148z M156.816,382.705c1.971,0,3.871-0.295,5.677-0.815  l20.67,75.029l-26.348,36.274l-26.349-36.274l20.671-75.029C152.944,382.41,154.845,382.705,156.816,382.705z M176.405,330.758  c29.827,9.171,100.43,43.553,117.745,165.242H164.664l26.102-35.938c0.715-0.984,0.943-2.24,0.62-3.413l-21.638-78.543  c4.646-3.772,7.624-9.521,7.624-15.958v-6.463c0-7.771-6.323-14.094-14.095-14.094h-12.925c-7.771,0-14.094,6.322-14.094,14.094  v6.463c0,6.436,2.978,12.185,7.623,15.957l-21.639,78.544c-0.323,1.173-0.095,2.429,0.62,3.413L148.966,496H19.481  c17.315-121.689,87.918-156.072,117.746-165.242c1.679-0.516,2.824-2.066,2.824-3.823v-14.2c5.51,0.588,11.102,0.898,16.765,0.898  s11.255-0.309,16.765-0.898v14.2C173.581,328.69,174.727,330.242,176.405,330.758z M257.747,276.73  c6.854-5.778,13.206-12.13,18.984-18.984l18.549,18.549l-18.984,18.984L257.747,276.73z M412.613,412.613  c-8.664,8.663-22.761,8.664-31.425,0L275.733,307.156l31.424-31.424l105.456,105.456  C421.276,389.852,421.276,403.949,412.613,412.613z M67.515,138.783c2.588,1.161,5.316,1.712,8.056,1.712  c9.175,0,18.471-6.174,22.985-16.227c0.001,0,0.001,0,0.001,0c5.861-13.057,1.476-27.789-9.776-32.843  c-5.574-2.503-11.922-2.292-17.87,0.596c-5.707,2.771-10.385,7.714-13.17,13.919c-2.787,6.204-3.374,12.984-1.653,19.091  C57.881,131.396,61.938,136.279,67.515,138.783z M65.038,109.218c2.018-4.496,5.345-8.047,9.365-9.999  c2.079-1.01,4.207-1.517,6.263-1.517c1.683,0,3.317,0.34,4.837,1.022c7.229,3.245,9.811,13.234,5.756,22.267  c-4.057,9.032-13.237,13.739-20.467,10.493c-3.377-1.517-5.865-4.579-7.005-8.623C62.575,118.559,63.019,113.713,65.038,109.218z   M200.086,259.345c1.702-0.704,2.702-2.479,2.424-4.301c-0.279-1.82-1.765-3.216-3.6-3.379  c-31.513-2.804-54.091-10.339-69.023-23.035c-18.839-16.017-28.105-38.424-26.798-64.801c0.062-1.241-0.457-2.44-1.403-3.245  c-0.947-0.805-2.215-1.126-3.429-0.864c-17.807,3.81-33.065,1.736-46.654-6.342c-1.237-0.734-2.772-0.75-4.021-0.038  c-1.25,0.711-2.022,2.038-2.022,3.477c0,61.348,49.91,111.258,111.258,111.258C171.54,268.074,186.098,265.138,200.086,259.345z   M53.775,163.541c12.358,5.664,26.165,7.32,41.191,4.929c-0.07,26.777,10.15,49.603,29.738,66.256  c13.144,11.174,31.397,18.642,55.495,22.649c-7.701,1.795-15.519,2.699-23.384,2.699C102.139,260.074,57.251,217.356,53.775,163.541  z"/></svg>