<svg fill="white" xmlns="http://www.w3.org/2000/svg" xmlns:xlink="http://www.w3.org/1999/xlink" version="1.1" x="0px" y="0px" viewBox="0 0 90 112.5" enable-background="new 0 0 90 90" xml:space="preserve"><path d="M29.04,31.636l14.344,5.136l14.35-5.136c2.984,6.443,1.333,14.158-4.188,18.798c-5.879,4.948-14.438,4.948-20.317,0  C27.707,45.793,26.061,38.079,29.04,31.636z M72.233,29.485l2.093,7.15v4.511h-4.188v-4.52L72.233,29.485z M55.321,25.417  l1.615,4.101l-13.552,4.848l-13.546-4.844l1.614-4.099l11.932,4.271L55.321,25.417z M43.383,7.955l27.719,7.52v1.891l-27.719,9.912  L15.67,17.365v-1.891L43.383,7.955z M43.383,5.605L13.404,13.74v5.22l15.907,5.692l-2.402,6.219  c-2.891,7.479-1.391,16.046,4.855,21.297c6.713,5.646,16.531,5.646,23.246,0c6.244-5.25,7.749-13.817,4.854-21.297l-2.402-6.219  l13.641-4.886v5.521l-3.229,11.009v7.12h8.719v-7.12l-3.224-11.031V13.74L43.383,5.605z"/><path fill-rule="evenodd" clip-rule="evenodd" d="M24.794,62.064h8.24l10.349,10.995l10.354-10.995h8.24  c2.579,0,4.511,0.854,5.86,2.358c1.354,1.506,2.15,3.735,2.15,6.595v11.5H16.785v-11.5c0-2.86,0.796-5.089,2.15-6.595  C20.285,62.917,22.217,62.064,24.794,62.064z M24.794,59.793c-3.104,0-5.75,1.113-7.552,3.119c-1.795,2-2.729,4.818-2.729,8.105  v13.765h57.74V71.018c0-3.287-0.933-6.105-2.729-8.105c-1.801-2.005-4.442-3.119-7.547-3.119h-9.219l-9.369,9.957l-9.376-9.957  H24.794z"/></svg>